<svg height='100px' width='100px'  fill="#000000" xmlns="http://www.w3.org/2000/svg" xmlns:xlink="http://www.w3.org/1999/xlink" version="1.1" x="0px" y="0px" viewBox="0 0 65 65" style="enable-background:new 0 0 65 65;" xml:space="preserve"><g><path d="M5.9,63.2c0,0.5,0.5,1,1,1h14.9c0.6,0,1-0.5,1-1v-4H5.9V63.2z"></path><path d="M42.1,63.2c0,0.5,0.5,1,1,1h14.9c0.5,0,1-0.5,1-1v-4H42.1V63.2z"></path><path d="M10.8,15.6c7-7,18.4-7,25.4,0c0.4,0.4,1,0.4,1.4,0c0.4-0.4,0.4-1,0-1.4c-7.8-7.8-20.5-7.8-28.2,0c-0.4,0.4-0.4,1,0,1.4   S10.4,16,10.8,15.6z"></path><path d="M33.8,19.4c0.4-0.4,0.4-1,0-1.4c-2.7-2.7-6.4-4.3-10.3-4.3c-3.9,0-7.5,1.5-10.3,4.3c-0.4,0.4-0.4,1,0,1.4   c0.4,0.4,1,0.4,1.4,0c2.4-2.4,5.5-3.7,8.9-3.7c3.4,0,6.5,1.3,8.9,3.7C32.8,19.8,33.4,19.8,33.8,19.4z"></path><path d="M30,23.3c0.4-0.4,0.4-1,0-1.4c-1.7-1.7-4-2.7-6.5-2.7s-4.7,0.9-6.5,2.7c-0.4,0.4-0.4,1,0,1.4c0.4,0.4,1,0.4,1.4,0   c1.3-1.3,3.1-2.1,5-2.1s3.7,0.7,5,2.1C28.9,23.6,29.6,23.6,30,23.3z"></path><path d="M20.9,25.7c-0.4,0.4-0.4,1,0,1.4s1,0.4,1.4,0c0.7-0.7,1.8-0.7,2.4,0c0.4,0.4,1,0.4,1.4,0c0.4-0.4,0.4-1,0-1.4   C24.7,24.2,22.3,24.2,20.9,25.7z"></path><path d="M51.9,10l-0.4,22.9h6L57.1,10c1.5-0.9,2.4-2.5,2.4-4.2c0-2.7-2.2-5-4.9-5c-2.7,0-5,2.2-5,5C49.6,7.5,50.5,9.1,51.9,10z"></path><path d="M40.8,44.5v-1.2H38v1.2c0,0.6-0.4,1-1,1h-0.5v3.4h5.8v-3.4h-0.5C41.3,45.5,40.8,45,40.8,44.5z"></path><path d="M13.2,44.5v-1.2h-2.8v1.2c0,0.6-0.4,1-1,1H8.9v3.4h5.8v-3.4h-0.5C13.7,45.5,13.2,45,13.2,44.5z"></path><path d="M27,44.5v-1.2h-2.8v1.2c0,0.6-0.4,1-1,1h-0.5v3.4h5.8v-3.4H28C27.5,45.5,27,45,27,44.5z"></path><path d="M54.6,44.5v-1.2h-2.8v1.2c0,0.6-0.4,1-1,1h-0.5v3.4h5.8v-3.4h-0.5C55.1,45.5,54.6,45,54.6,44.5z"></path><path d="M60.9,34.9H4.1c-2,0-3.6,1.6-3.6,3.6v15.2c0,2,1.6,3.6,3.6,3.6h56.9c2,0,3.6-1.6,3.6-3.6V38.5   C64.5,36.5,62.9,34.9,60.9,34.9z M16.7,49.8c0,0.6-0.4,1-1,1H7.9c-0.6,0-1-0.4-1-1v-5.4c0-0.6,0.4-1,1-1h0.5v-1.2c0-0.6,0.4-1,1-1   h4.8c0.6,0,1,0.4,1,1v1.2h0.5c0.6,0,1,0.4,1,1V49.8z M30.5,49.8c0,0.6-0.4,1-1,1h-7.8c-0.6,0-1-0.4-1-1v-5.4c0-0.6,0.4-1,1-1h0.5   v-1.2c0-0.6,0.4-1,1-1H28c0.6,0,1,0.4,1,1v1.2h0.5c0.6,0,1,0.4,1,1V49.8z M44.3,49.8c0,0.6-0.4,1-1,1h-7.8c-0.6,0-1-0.4-1-1v-5.4   c0-0.6,0.4-1,1-1H36v-1.2c0-0.6,0.4-1,1-1h4.8c0.6,0,1,0.4,1,1v1.2h0.5c0.6,0,1,0.4,1,1V49.8z M58.1,49.8c0,0.6-0.4,1-1,1h-7.8   c-0.6,0-1-0.4-1-1v-5.4c0-0.6,0.4-1,1-1h0.5v-1.2c0-0.6,0.4-1,1-1h4.8c0.6,0,1,0.4,1,1v1.2h0.5c0.6,0,1,0.4,1,1V49.8z"></path></g></svg>